<?xml version="1.0" encoding="UTF-8"?>
<svg xmlns="http://www.w3.org/2000/svg" width="1055" height="974" viewBox="99 119 1055 974" version="1.1">
  <title>DeepSeek TUI Whale Logo Vector</title>
  <desc>Pure SVG made only of path elements. No raster image embedding.</desc>
  <path d="M 194 971 L 195 982 L 200 987 L 206 989 L 334 989 L 339 987 L 344 982 L 346 976 L 343 967 L 335 962 L 203 962 L 199 964 Z" fill="#0F62FE" fill-rule="evenodd"/>
  <path d="M 143 824 L 143 835 L 152 843 L 175 843 L 181 839 L 184 833 L 183 823 L 174 816 L 153 816 L 148 818 Z" fill="#0F62FE" fill-rule="evenodd"/>
  <path d="M 303 287 L 304 292 L 434 411 L 684 412 L 727 420 L 767 435 L 802 456 L 837 487 L 850 502 L 866 525 L 884 562 L 914 553 L 942 536 L 964 513 L 976 492 L 981 478 L 985 460 L 969 431 L 942 395 L 913 366 L 881 341 L 846 320 L 810 304 L 776 293 L 738 285 L 698 281 L 308 281 Z" fill="#0F62FE" fill-rule="evenodd"/>
  <path d="M 1128 140 L 1102 140 L 1068 145 L 1052 149 L 1023 160 L 992 180 L 978 194 L 965 213 L 962 212 L 953 196 L 941 183 L 929 174 L 906 162 L 873 153 L 822 147 L 811 147 L 806 150 L 803 155 L 803 173 L 807 194 L 816 216 L 829 235 L 847 253 L 862 264 L 914 290 L 944 311 L 961 328 L 976 348 L 989 372 L 998 396 L 1004 427 L 1004 460 L 1001 479 L 994 500 L 980 525 L 962 545 L 935 564 L 914 573 L 883 580 L 850 581 L 824 578 L 763 563 L 720 556 L 555 555 L 553 553 L 554 514 L 552 504 L 543 488 L 530 478 L 517 474 L 459 473 L 455 471 L 425 441 L 415 435 L 403 432 L 326 432 L 316 417 L 299 408 L 289 407 L 277 410 L 262 422 L 255 438 L 256 453 L 264 468 L 279 478 L 296 480 L 306 477 L 313 473 L 326 457 L 403 457 L 408 459 L 442 492 L 450 496 L 475 499 L 516 499 L 527 508 L 529 513 L 528 555 L 465 555 L 454 551 L 436 533 L 420 525 L 251 524 L 247 516 L 236 505 L 224 500 L 205 501 L 194 507 L 185 517 L 180 530 L 180 542 L 188 559 L 197 567 L 206 571 L 224 572 L 230 570 L 240 564 L 251 549 L 413 549 L 420 552 L 424 556 L 424 559 L 412 565 L 384 593 L 380 595 L 303 596 L 289 603 L 270 622 L 264 625 L 189 625 L 183 614 L 178 609 L 161 601 L 149 601 L 136 606 L 126 615 L 121 624 L 119 642 L 122 652 L 128 661 L 140 670 L 151 673 L 160 673 L 168 671 L 178 665 L 184 659 L 189 650 L 267 650 L 282 644 L 301 625 L 308 621 L 344 620 L 369 622 L 368 673 L 365 681 L 360 686 L 353 689 L 278 689 L 268 692 L 255 702 L 245 717 L 235 727 L 233 732 L 235 743 L 242 749 L 251 750 L 256 748 L 262 742 L 268 726 L 277 716 L 282 714 L 355 714 L 359 716 L 365 722 L 368 729 L 368 799 L 364 808 L 359 813 L 351 816 L 218 816 L 209 822 L 207 826 L 207 833 L 214 842 L 223 844 L 379 844 L 385 847 L 391 855 L 390 868 L 385 874 L 379 877 L 260 877 L 253 879 L 244 886 L 240 898 L 242 908 L 252 918 L 258 920 L 490 920 L 500 924 L 504 928 L 507 934 L 508 943 L 502 955 L 490 961 L 386 961 L 380 964 L 374 971 L 372 982 L 375 990 L 381 996 L 390 999 L 460 999 L 470 1007 L 470 1021 L 460 1029 L 333 1029 L 325 1032 L 319 1038 L 315 1047 L 316 1057 L 324 1068 L 335 1072 L 625 1072 L 675 1068 L 729 1057 L 766 1045 L 795 1033 L 844 1007 L 875 986 L 906 961 L 961 905 L 1001 854 L 1039 810 L 1075 756 L 1094 719 L 1105 693 L 1115 663 L 1124 627 L 1130 579 L 1130 534 L 1123 484 L 1111 442 L 1098 410 L 1076 371 L 1048 335 L 1013 302 L 1010 297 L 1010 290 L 1018 281 L 1041 272 L 1070 255 L 1084 243 L 1100 225 L 1115 202 L 1127 175 L 1133 153 L 1133 146 Z M 499 1010 L 502 1004 L 510 999 L 534 999 L 543 1006 L 545 1010 L 545 1017 L 543 1022 L 536 1028 L 510 1029 L 501 1022 L 499 1018 Z M 598 793 L 601 786 L 608 780 L 612 779 L 703 779 L 709 781 L 714 786 L 716 797 L 714 802 L 709 807 L 704 809 L 611 809 L 602 804 Z M 1059 702 L 1051 715 L 1039 727 L 1017 743 L 997 753 L 952 767 L 864 780 L 846 785 L 820 797 L 790 820 L 744 868 L 721 888 L 761 888 L 802 885 L 844 879 L 880 871 L 910 862 L 950 846 L 992 824 L 1019 805 L 1022 806 L 1018 812 L 992 834 L 958 855 L 903 878 L 841 894 L 810 899 L 766 903 L 700 902 L 659 924 L 709 928 L 788 926 L 844 918 L 902 902 L 905 903 L 904 906 L 892 912 L 862 923 L 831 931 L 778 939 L 718 941 L 678 939 L 632 933 L 603 940 L 582 942 L 564 941 L 565 937 L 596 931 L 640 916 L 686 891 L 725 860 L 754 830 L 775 805 L 790 791 L 821 771 L 835 765 L 863 757 L 941 746 L 975 738 L 1016 723 L 1044 709 L 1056 701 Z M 888 672 L 897 671 L 904 674 L 909 679 L 912 686 L 910 697 L 899 706 L 886 705 L 880 700 L 876 692 L 876 686 L 879 679 Z M 149 622 L 161 622 L 170 632 L 170 642 L 162 651 L 151 652 L 141 644 L 140 632 Z M 486 616 L 495 616 L 502 619 L 582 690 L 594 702 L 596 707 L 596 717 L 593 724 L 500 807 L 494 809 L 484 808 L 474 800 L 472 795 L 473 783 L 484 771 L 548 715 L 549 712 L 475 645 L 472 639 L 473 627 L 480 619 Z M 214 520 L 224 522 L 228 525 L 232 532 L 231 542 L 221 551 L 209 550 L 201 541 L 201 531 L 207 523 Z M 288 428 L 295 428 L 299 430 L 305 436 L 307 442 L 305 451 L 296 459 L 287 459 L 283 457 L 276 448 L 276 439 L 278 435 L 283 430 Z" fill="#0F62FE" fill-rule="evenodd"/>
</svg>
